<?xml version="1.0" encoding="utf-8"?>
<!-- Generator: Adobe Illustrator 27.4.0, SVG Export Plug-In . SVG Version: 6.00 Build 0)  -->
<svg version="1.1" id="OBJECTS" xmlns="http://www.w3.org/2000/svg" xmlns:xlink="http://www.w3.org/1999/xlink" x="0px" y="0px"
	 width="500px" height="500px" viewBox="0 0 500 500" enable-background="new 0 0 500 500" xml:space="preserve">
<polygon fill="#99C1F1" fill-opacity="0.9922" points="489,199 250,428.8 11,199 154.6,72.1 187.9,71.2 312.1,71.2 345.4,72.1 "/>
<g id="g498" transform="matrix(1.7337879,0,0,1.7337879,-278.58093,-1821.9174)">
	<path id="path489" fill="#99C1F1" fill-opacity="0.9922" d="M304.9,1091.9l42.6,73.7h-85.1L304.9,1091.9z"/>
	<path id="path490" fill="#62A0EA" fill-opacity="0.9922" d="M304.9,1298.2l42.6-132.6h-85.1L304.9,1298.2z"/>
	<path id="path491" fill="#2E81E3" fill-opacity="0.9922" d="M304.9,1298.2l42.6-132.6h67.5L304.9,1298.2z"/>
	<path id="path492" fill="#9AC2F2" d="M304.9,1298.2l-42.6-132.6h-67.5L304.9,1298.2z"/>
	<path id="path493" fill="#63A1EB" d="M304.9,1091.9l42.6,73.7h67.5l-74.3-73.7H304.9z"/>
	<path id="path494" fill="#B8D4F6" d="M304.9,1091.9l-42.6,73.7h-67.5l74.3-73.7H304.9z"/>
	<path id="path495" fill="#D4E5FA" d="M249.8,1092.4l-82.8,73.2h27.8l74.3-73.7L249.8,1092.4z"/>
	<path id="path496" fill="#B8D4F6" d="M304.9,1298.2L167,1165.6h27.8L304.9,1298.2z"/>
	<path id="path497" fill="#2F82E4" d="M359.9,1092.4l82.8,73.2h-27.8l-74.3-73.7L359.9,1092.4z"/>
	<path id="path498" fill="#1A69C6" d="M304.9,1298.2l137.8-132.6h-27.8L304.9,1298.2z"/>
</g>
</svg>
